# xmcd
#
# Track frame offsets: 
#        150
#        20730
#        42842
#        57992
#        77792
#        98532
#        118387
#        137137
#        158537
#        180090
#        197862
#        220125
#        241325
#        259395
#        281462
#
# Disc length: 4050 seconds
#
# Revision: 39
# Processed by: cddbd v1.5.2PL0 Copyright (c) Steve Scherf et al.
# Submitted via: ExactAudioCopy v1.3
#
DISCID=d00fd00f
DTITLE=????? - Impressions
DYEAR=1994
DGENRE=JPop
TTITLE0=???????
TTITLE1=????
TTITLE2=????????????
TTITLE3=Forever Friends
TTITLE4=???
TTITLE5=?????????
TTITLE6=????
TTITLE7=?????????
TTITLE8=??????
TTITLE9=????????? (Let's Get Married)
TTITLE10=??
TTITLE11=???????
TTITLE12=???
TTITLE13=????? (My Sweet Home)
TTITLE14=?
EXTD=YEAR: 1994
EXTT0=
EXTT1=
EXTT2=
EXTT3=
EXTT4=
EXTT5=
EXTT6=
EXTT7=
EXTT8=
EXTT9=
EXTT10=
EXTT11=
EXTT12=
EXTT13=
EXTT14=
PLAYORDER=
